<svg width="128" height="52" viewBox="0 0 128 52" fill="none" xmlns="http://www.w3.org/2000/svg">
<path d="M3.9458 1.375C3.9458 1.375 7.17704 3.4375 9.02051 6.875C10.1804 9.04167 10.4497 10.9792 10.6568 11.6042C14.2609 11.6667 15.773 13.3125 17.865 17.0833C18.3207 17.9167 18.7971 18.75 19.2528 19.5417C18.59 18.5208 17.8443 17.3958 17.1815 16.4792C15.6901 14.4375 13.7431 12.5208 10.7811 12.4375C10.0769 12.4167 9.89046 12.4167 9.62119 12.4167C9.3312 12.4167 8.99979 12.4167 7.92271 12.3958C11.1332 14.1875 11.3818 18.625 13.4117 21.5208C15.2759 24.1667 16.9329 26.375 21.6555 27.2917C22.3183 27.4167 23.8925 27.6667 24.6175 27.625C23.644 26.7917 22.8776 25.625 22.0076 24.1458C21.7798 23.7083 20.682 21.625 19.7706 18.7083C18.8592 15.8333 17.9686 12.3125 17.5336 10.4375C16.6222 6.625 15.1309 3.14583 10.6568 1.79167C9.31049 1.39583 6.74207 1.3125 5.2093 1.3125C4.44292 1.35417 3.9458 1.375 3.9458 1.375Z" fill="#86D500"/>
<path d="M8.4613 35.375C8.33702 35.25 8.17131 35.1875 7.94347 35.1875C7.73634 35.1875 7.52921 35.2292 7.32208 35.3125C7.28065 35.3333 7.23923 35.3542 7.21851 35.3958L0.0310696 47.5208C-0.0103565 47.5833 -0.0103565 47.6667 0.0310696 47.7292C0.0724958 47.7917 0.134635 47.8333 0.217487 47.8333H1.31528C1.39813 47.8333 1.46027 47.7917 1.5017 47.7292L3.42802 44.4167H8.56486L9.04127 47.6458C9.06198 47.75 9.14483 47.8125 9.2484 47.8125H10.3876C10.4498 47.8125 10.5119 47.7917 10.5533 47.75C10.5947 47.7083 10.6155 47.6458 10.5947 47.5833L8.70986 35.8542C8.64772 35.6667 8.58558 35.5 8.4613 35.375ZM8.31631 43.1042H4.17369L7.48778 37.3958L8.31631 43.1042Z" fill="black"/>
<path d="M20.972 38.9375C20.9099 38.9167 20.827 38.9167 20.7235 38.9167C20.4542 38.9167 20.1849 39 19.9571 39.1875C19.8328 39.2917 19.7292 39.4167 19.6464 39.5417C19.5635 39.4375 19.46 39.3542 19.315 39.25C19.1286 39.125 18.9007 39 18.6107 38.9167C18.3208 38.8333 17.9686 38.7708 17.5751 38.7708C16.8294 38.7708 16.1045 38.9583 15.4209 39.3333C14.7374 39.7083 14.1367 40.2292 13.6603 40.9167C13.1839 41.6042 12.8318 42.4375 12.6247 43.4167C12.314 44.8333 12.4175 45.9792 12.9561 46.7917C13.4946 47.625 14.3646 48.0417 15.5659 48.0417C16.0837 48.0417 16.5809 47.9583 17.0158 47.7917C17.3058 47.6875 17.6165 47.5208 17.9479 47.2917C17.8236 47.8542 17.6787 48.3542 17.5129 48.7708C17.0573 50.0833 16.0216 50.7083 14.3853 50.7083C13.6603 50.7083 13.1011 50.5625 12.7075 50.25C12.5004 50.1042 12.3347 49.9583 12.2518 49.8125C12.2311 49.7708 12.169 49.7292 12.1068 49.7083C12.0447 49.6875 11.9826 49.7083 11.9411 49.75C11.7961 49.875 11.6511 50 11.5476 50.1042C11.4233 50.25 11.3404 50.375 11.3197 50.5C11.2783 50.7292 11.3404 50.9583 11.5476 51.1875C11.7754 51.4375 12.1275 51.625 12.6454 51.7917C13.1218 51.9375 13.6603 52 14.2403 52C16.4566 52 17.9893 51.125 18.7764 49.375C19.025 48.8333 19.2321 48.1042 19.4186 47.2292L21.1584 39.1875C21.1792 39.125 21.1585 39.0833 21.1377 39.0208C21.0756 38.9792 21.0135 38.9375 20.972 38.9375ZM19.2943 40.9375L18.3 45.4792C18.2586 45.6458 18.1343 45.8125 17.9272 46C17.6787 46.1875 17.3887 46.3542 17.0365 46.5C16.6844 46.625 16.3116 46.6875 15.9388 46.6875C15.1309 46.6875 14.5924 46.4167 14.3024 45.8542C13.9917 45.2708 13.9503 44.4375 14.1989 43.3333C14.4267 42.25 14.841 41.4167 15.4209 40.8542C16.0009 40.2917 16.6844 40.0208 17.5544 40.0208C18.3208 40.0625 18.88 40.3542 19.2943 40.9375Z" fill="black"/>
<path d="M35.0569 35.6042C34.829 35.4583 34.5183 35.3125 34.1248 35.2083C33.7312 35.1042 33.2548 35.0208 32.6749 35.0208C31.5149 35.0208 30.5 35.3125 29.6715 35.9167C28.8222 36.5208 28.2837 37.3542 28.0766 38.375C27.9523 38.9792 27.9523 39.5 28.0973 39.9375C28.2423 40.3958 28.5322 40.7917 28.9879 41.1042C29.4229 41.4167 30.065 41.7083 30.9557 42.0208C31.5978 42.2292 32.0535 42.4375 32.3434 42.6667C32.6127 42.875 32.7577 43.1042 32.8198 43.3958C32.882 43.6875 32.882 44.0625 32.7784 44.5C32.6127 45.2292 32.2813 45.7917 31.7428 46.1875C31.2042 46.5833 30.5 46.7917 29.6507 46.7917C29.0501 46.7917 28.5115 46.6875 28.0351 46.4792C27.5794 46.2708 27.2066 45.9792 26.9788 45.625C26.9373 45.5833 26.8959 45.5417 26.8338 45.5417C26.7716 45.5417 26.7095 45.5625 26.6681 45.6042C26.2745 45.9583 26.0674 46.2292 26.026 46.4792C25.9845 46.6458 26.0052 46.875 26.2331 47.0833C26.4816 47.3958 26.8959 47.6458 27.4552 47.8542C28.0144 48.0625 28.6772 48.1667 29.4022 48.1667C30.6657 48.1667 31.7428 47.8333 32.6127 47.1667C33.5034 46.5 34.0626 45.5833 34.3112 44.4375C34.4355 43.8125 34.4355 43.2708 34.2905 42.7917C34.1455 42.2917 33.8555 41.875 33.4205 41.5417C33.0063 41.2083 32.4263 40.9167 31.6806 40.6875C30.9971 40.4792 30.5 40.25 30.1686 40.0417C29.8579 39.8333 29.6715 39.6042 29.5679 39.3542C29.485 39.1042 29.4643 38.7917 29.5472 38.4375C29.6922 37.7917 29.9822 37.3125 30.4793 36.9583C30.9557 36.6042 31.6185 36.4167 32.4056 36.4167C33.4205 36.4167 34.1455 36.7292 34.6633 37.3958C34.7047 37.4375 34.7669 37.4792 34.829 37.4792H35.0361C35.0983 37.4792 35.1397 37.4583 35.1811 37.4167C35.4918 37.0833 35.6575 36.8542 35.699 36.6667C35.7611 36.4167 35.6783 36.1875 35.4918 36.0208C35.4297 35.8542 35.2847 35.75 35.0569 35.6042Z" fill="black"/>
<path d="M41.1259 38.7708C40.3181 38.7708 39.5517 38.9583 38.8682 39.3333C38.1846 39.7083 37.584 40.2708 37.0868 40.9792C36.5897 41.6875 36.2376 42.5208 36.0512 43.4167C35.7405 44.8333 35.8648 45.9792 36.3826 46.8125C36.9211 47.6667 37.8532 48.1042 39.1374 48.1042C40.4217 48.1042 41.5194 47.6875 42.3894 46.8333C43.2593 46 43.86 44.875 44.1707 43.4375C44.4814 42 44.3779 40.8542 43.86 40.0208C43.3215 39.1875 42.4101 38.7708 41.1259 38.7708ZM39.3031 46.8333C38.4746 46.8333 37.9361 46.5625 37.6461 46C37.3354 45.4167 37.3147 44.5625 37.5425 43.4583C37.7704 42.4167 38.1846 41.5625 38.7853 40.9583C39.3653 40.3542 40.0695 40.0625 40.8981 40.0625C41.7266 40.0625 42.2651 40.3125 42.5551 40.8542C42.8658 41.3958 42.8865 42.25 42.638 43.375C42.3894 44.5 41.9751 45.375 41.4159 45.9583C40.8566 46.5417 40.1731 46.8333 39.3031 46.8333Z" fill="black"/>
<path d="M48.3753 34.4792C48.3132 34.4792 48.251 34.4792 48.1682 34.5C48.0853 34.5208 48.0232 34.5833 48.0025 34.6667L45.5998 45.8125C45.4755 46.375 45.4341 46.7917 45.4755 47.0417C45.5169 47.3333 45.6412 47.5625 45.8483 47.7292C46.0348 47.875 46.304 47.9375 46.6354 47.9375C46.9254 47.9375 47.1947 47.8958 47.4432 47.8333C47.5261 47.8125 47.5882 47.75 47.5882 47.6667L47.6711 47.2917C47.6918 47.2292 47.6711 47.1667 47.6297 47.125C47.5882 47.0833 47.5468 47.0417 47.4847 47.0417C47.2154 47.0208 47.0911 46.9583 47.0497 46.9167C46.9876 46.875 46.9461 46.7917 46.9461 46.6667C46.9254 46.5 46.9668 46.2708 47.0083 46L49.2453 35.6667C49.3281 35.2917 49.2867 35 49.121 34.7917C48.9553 34.5833 48.7067 34.4792 48.3753 34.4792Z" fill="black"/>
<path d="M57.3855 38.9167H57.3233C57.2198 38.9167 57.1369 38.9792 57.1162 39.0833L55.7284 45.4792C55.7077 45.5417 55.6456 45.7083 55.3142 45.9167C55.0242 46.1042 54.6721 46.2708 54.2371 46.4167C53.8021 46.5625 53.3879 46.625 52.9943 46.625C51.4823 46.625 51.4201 45.8958 51.3994 45.6458C51.358 45.3125 51.3994 44.875 51.503 44.3542L52.4143 40.1458C52.4972 39.75 52.4558 39.4375 52.2901 39.2292C52.1244 39.0208 51.8551 38.9167 51.4615 38.9167H51.3787C51.2751 38.9167 51.1923 38.9792 51.1716 39.0833L50.0531 44.2917C49.9081 45 49.8252 45.5625 49.8459 45.9583C49.8252 46.6042 50.0531 47.1042 50.488 47.4792C50.923 47.8542 51.5444 48.0208 52.3522 48.0208C52.9943 48.0208 53.6157 47.9167 54.2164 47.7083C54.6306 47.5625 55.0035 47.375 55.3349 47.1667L55.2313 47.6042C55.2106 47.6667 55.2313 47.7292 55.2728 47.7708C55.3142 47.8125 55.3763 47.8542 55.4385 47.8542H56.4948C56.5984 47.8542 56.6812 47.7917 56.702 47.6875L58.3176 40.1667C58.4004 39.75 58.359 39.4375 58.1933 39.2292C58.0276 39.0208 57.7583 38.9167 57.3855 38.9167Z" fill="black"/>
<path d="M65.1118 38.9167H62.5434L62.8541 37.4792C62.9369 37.1042 62.8955 36.8125 62.7298 36.625C62.5641 36.4167 62.3156 36.3125 61.9841 36.3125C61.922 36.3125 61.8599 36.3125 61.777 36.3333C61.6942 36.3542 61.632 36.4167 61.6113 36.5L59.7471 45.1042C59.6021 45.7708 59.5607 46.2917 59.6021 46.6875C59.685 47.3542 60.0993 48.1458 61.6113 48.1458C61.9634 48.1458 62.3156 48.0833 62.647 47.9792C62.9991 47.875 63.3098 47.7083 63.5998 47.5208C63.9312 47.2917 64.0969 47.1042 64.1383 46.9375C64.1797 46.7292 64.0762 46.4792 63.8069 46.1458C63.7655 46.1042 63.724 46.0625 63.6619 46.0625C63.5998 46.0625 63.5376 46.0833 63.4962 46.125C63.3305 46.2708 63.1855 46.3958 63.0198 46.5C62.6263 46.75 62.2534 46.875 61.8806 46.875C61.5699 46.875 61.342 46.7917 61.2178 46.625C61.0313 46.3958 61.0106 45.9792 61.1349 45.375L62.2534 40.1875H64.9254C65.029 40.1875 65.1118 40.125 65.1325 40.0208L65.319 39.1875C65.3397 39.125 65.319 39.0625 65.2775 39.0208C65.2154 38.9375 65.174 38.9167 65.1118 38.9167Z" fill="black"/>
<path d="M68.7362 35.8333C68.467 35.8333 68.2184 35.9375 67.9906 36.125C67.7627 36.3125 67.6384 36.5625 67.5763 36.8333C67.5142 37.125 67.5556 37.375 67.7006 37.5833C67.8456 37.7917 68.0941 37.9167 68.3634 37.9167C68.6327 37.9167 68.8812 37.8125 69.1091 37.625C69.3369 37.4375 69.4612 37.1875 69.5233 36.9167C69.5855 36.625 69.544 36.375 69.3991 36.1667C69.2541 35.9375 69.0262 35.8333 68.7362 35.8333Z" fill="black"/>
<path d="M67.6593 38.9167H67.5972C67.4936 38.9167 67.4107 38.9792 67.39 39.0833L65.9401 45.8125C65.8158 46.3958 65.7744 46.7917 65.8158 47.0625C65.8573 47.375 65.9815 47.5833 66.1887 47.7292C66.3751 47.8542 66.6444 47.9375 66.955 47.9375C67.245 47.9375 67.5143 47.8958 67.7629 47.8333C67.8457 47.8125 67.9079 47.75 67.9079 47.6667L67.9907 47.2917C68.0114 47.2292 67.9907 47.1667 67.9493 47.125C67.9078 47.0833 67.8664 47.0417 67.8043 47.0417C67.5143 47.0208 67.4107 46.9583 67.3693 46.9167C67.3072 46.8542 67.2657 46.7708 67.2657 46.6458C67.2657 46.4583 67.2865 46.2292 67.3486 45.9583L68.6121 40.125C68.6949 39.75 68.6535 39.4583 68.4878 39.25C68.3428 39.0208 68.0528 38.9167 67.6593 38.9167Z" fill="black"/>
<path d="M75.2402 38.7708C74.4323 38.7708 73.666 38.9583 72.9824 39.3333C72.2989 39.7083 71.6982 40.2708 71.2011 40.9792C70.704 41.6875 70.3519 42.5208 70.1655 43.4167C69.8548 44.8333 69.979 45.9792 70.4969 46.8125C71.0354 47.6667 71.9675 48.1042 73.2517 48.1042C74.5359 48.1042 75.6337 47.6875 76.5037 46.8333C77.3736 46 77.9743 44.875 78.285 43.4375C78.5957 42 78.4921 40.8542 77.9743 40.0208C77.4357 39.1875 76.5037 38.7708 75.2402 38.7708ZM76.7522 43.375C76.5037 44.5 76.0894 45.375 75.5301 45.9583C74.9709 46.5417 74.2874 46.8125 73.4174 46.8125C72.5889 46.8125 72.0503 46.5417 71.7604 45.9792C71.4497 45.3958 71.429 44.5417 71.6568 43.4375C71.8846 42.3958 72.2989 41.5417 72.8996 40.9375C73.4795 40.3333 74.1838 40.0417 75.0123 40.0417C75.8408 40.0417 76.3794 40.2917 76.6694 40.8333C76.9593 41.4167 77.0008 42.25 76.7522 43.375Z" fill="black"/>
<path d="M87.4611 39.3125C87.0261 38.9583 86.4047 38.7708 85.6176 38.7708C84.9755 38.7708 84.3334 38.875 83.7327 39.0833C83.2978 39.2292 82.9042 39.4375 82.5521 39.6667C82.5314 39.4792 82.49 39.3333 82.3864 39.2083C82.2207 39 81.9514 38.8958 81.5786 38.8958H81.4957C81.3922 38.8958 81.3093 38.9583 81.2886 39.0625L79.4451 47.5833C79.4244 47.6458 79.4451 47.7083 79.4866 47.75C79.528 47.7917 79.5901 47.8333 79.6523 47.8333H80.7086C80.8122 47.8333 80.8951 47.7708 80.9158 47.6667L82.2828 41.3958C82.3035 41.25 82.3657 41.1458 82.4692 41.0417C82.7592 40.7917 83.1321 40.5625 83.6292 40.375C84.1263 40.1875 84.582 40.1042 85.0377 40.1042C86.5497 40.1042 86.6119 40.8333 86.6326 41.0833C86.674 41.375 86.6326 41.8125 86.5083 42.375L85.3898 47.5625C85.3691 47.625 85.3898 47.6875 85.4312 47.7292C85.4727 47.7708 85.5348 47.8125 85.5969 47.8125H86.6533C86.7569 47.8125 86.8397 47.75 86.8604 47.6458L87.9789 42.4583C88.1239 41.75 88.2068 41.1875 88.1861 40.7917C88.1446 40.1875 87.9168 39.6667 87.4611 39.3125Z" fill="black"/>
<path d="M96.1814 39.5833C95.9536 39.3333 95.6222 39.125 95.2079 38.9792C94.8144 38.8333 94.338 38.7708 93.8201 38.7708C93.2816 38.7708 92.743 38.875 92.2459 39.0625C91.7488 39.2708 91.3138 39.5417 90.9824 39.8958C90.6303 40.2708 90.4025 40.7083 90.2989 41.2083C90.1953 41.6458 90.2161 42.0208 90.2989 42.3542C90.4025 42.6875 90.6096 42.9792 90.8996 43.2083C91.1896 43.4375 91.6867 43.6458 92.4116 43.8542C93.033 44.0208 93.4473 44.1667 93.6751 44.3125C93.8823 44.4375 94.0065 44.6042 94.0687 44.7708C94.1308 44.9583 94.1308 45.1667 94.0894 45.4167C93.9858 45.875 93.758 46.2292 93.3852 46.4792C93.0123 46.75 92.5152 46.875 91.956 46.875C91.521 46.875 91.1067 46.7917 90.7339 46.625C90.361 46.4583 90.0503 46.2708 89.8225 46.0417C89.7811 46 89.7189 45.9792 89.6775 45.9792C89.6154 45.9792 89.5739 46 89.5325 46.0417C89.3668 46.2292 89.2218 46.375 89.139 46.4792C89.0354 46.6042 88.994 46.7292 88.9526 46.8333C88.9111 46.9792 88.9318 47.2292 89.2011 47.4583C89.4497 47.6458 89.8018 47.8125 90.2782 47.9375C90.7546 48.0625 91.2517 48.125 91.7902 48.125C92.7016 48.125 93.5094 47.875 94.193 47.3958C94.8765 46.9167 95.3115 46.25 95.4979 45.4375C95.6014 44.9583 95.6014 44.5625 95.4979 44.2292C95.3943 43.8958 95.2079 43.625 94.9801 43.4375C94.7522 43.25 94.4829 43.0833 94.193 42.9583C93.903 42.8333 93.613 42.7292 93.3023 42.625C92.743 42.4583 92.3288 42.3125 92.1217 42.1667C91.9352 42.0417 91.811 41.9167 91.7488 41.7708C91.6867 41.625 91.6867 41.4583 91.7281 41.2708C91.811 40.8958 92.0181 40.5833 92.3702 40.375C92.743 40.1458 93.178 40.0417 93.6544 40.0417C94.5451 40.0417 95.1458 40.3542 95.4979 41.0208C95.5393 41.0833 95.6015 41.125 95.6843 41.125H95.85C95.9121 41.125 95.9743 41.1042 96.0157 41.0417C96.1193 40.8958 96.2021 40.7708 96.285 40.6667C96.3886 40.5208 96.43 40.3958 96.4714 40.2708C96.4921 40.1042 96.4714 39.8333 96.1814 39.5833Z" fill="black"/>
<path d="M26.3366 1.35417L21.3447 20.625C22.3597 23.2083 23.3125 25.3333 24.8452 26.75L30.3342 5.625L30.3756 5.45833C30.4378 5.20833 30.4585 4.95833 30.4585 4.6875C30.4792 2.6875 28.6772 1.39583 26.3366 1.35417Z" fill="black"/>
<path d="M7.69503 13.25L4.02881 27.3542H9.12423L11.2163 19.2083C10.2842 16.5 9.33136 14.4167 7.69503 13.25Z" fill="black"/>
<path d="M45.6619 27.3542H42.12C41.4779 27.3542 41.1051 27.1667 41.0222 26.8333C40.9394 26.4792 41.0015 25.9792 41.1672 25.2917C40.5665 25.875 39.7587 26.4375 38.7231 26.9375C37.6874 27.4375 36.3825 27.6875 34.829 27.6875C32.9855 27.6875 31.722 27.3125 31.0385 26.5833C30.355 25.8542 30.0236 24.8958 30.065 23.7083C30.0857 23.1042 30.1685 22.4583 30.3135 21.7708C30.4585 21.0625 30.6035 20.375 30.7899 19.7083L33.5862 8.9375C33.6483 8.91667 33.8555 8.875 34.2283 8.83334C34.6011 8.79167 34.9947 8.77084 35.409 8.77084C35.8232 8.77084 36.2168 8.8125 36.631 8.89584C37.0246 8.97917 37.356 9.125 37.646 9.35417C37.9152 9.58334 38.1224 9.89584 38.2259 10.2917C38.3295 10.6875 38.2881 11.2292 38.1224 11.875L36.1546 19.5C36.0096 20.1042 35.8854 20.625 35.8025 21.1042C35.7197 21.5833 35.7197 22 35.7818 22.3542C35.8646 22.7083 36.0511 22.9792 36.3825 23.1667C36.7139 23.3542 37.211 23.4583 37.8738 23.4583C38.8266 23.4583 39.6966 23.2708 40.5044 22.8542C41.2915 22.4583 41.7679 21.9583 41.9129 21.3542L45.1441 8.95834C45.2063 8.9375 45.4134 8.89584 45.7862 8.85417C46.1591 8.8125 46.5526 8.79167 46.9669 8.79167C47.3811 8.79167 47.7747 8.83334 48.1682 8.9375C48.5618 9.02084 48.8932 9.20834 49.1625 9.4375C49.4317 9.6875 49.6181 10.0208 49.7217 10.4583C49.8253 10.8958 49.7838 11.4167 49.6181 12.0625L45.6619 27.3542Z" fill="black"/>
<path d="M51.0268 24.5625C50.9854 24.0417 51.0061 23.5 51.1097 22.9375C51.2133 22.375 51.3168 21.7917 51.4825 21.2292L56.143 3.20834L56.7437 3.125C56.9301 3.10417 57.1372 3.08334 57.3443 3.0625C57.5515 3.04167 57.7586 3.04167 57.9657 3.04167C58.38 3.04167 58.7735 3.08334 59.1878 3.16667C59.5813 3.25 59.9128 3.39584 60.2027 3.625C60.472 3.85417 60.6791 4.1875 60.7827 4.58333C60.8863 4.97917 60.8448 5.52083 60.6791 6.16667L59.9749 8.89583L65.4224 8.91667L64.4075 12.875L58.96 12.8542L56.8058 21.1667C56.3294 22.9792 56.8472 23.8958 58.3178 23.8958C58.67 23.8958 59.0428 23.8333 59.3949 23.7292C59.7471 23.6042 60.0785 23.4792 60.3892 23.3333C60.6999 23.1875 60.9691 23.0417 61.1763 22.8958C61.4041 22.75 61.5491 22.625 61.6527 22.5417C61.9012 23.1042 62.0669 23.6042 62.1705 24.0208C62.274 24.4375 62.274 24.8333 62.1705 25.1875C62.0876 25.5208 61.8598 25.8542 61.5077 26.1875C61.1555 26.5 60.6999 26.8125 60.1199 27.0833C59.5606 27.3542 58.8978 27.5625 58.1521 27.7292C57.4065 27.8958 56.6194 27.9792 55.7909 27.9792C54.1545 27.9792 52.9946 27.6667 52.2696 27.0417C51.524 26.3958 51.1304 25.5625 51.0268 24.5625Z" fill="black"/>
<path d="M73.4381 10.8542C73.6452 10.625 73.9352 10.3542 74.2873 10.0833C74.6394 9.79167 75.0123 9.54167 75.4473 9.3125C75.8615 9.08333 76.3172 8.89583 76.8143 8.72917C77.3114 8.58333 77.8085 8.5 78.3264 8.5C78.6371 8.5 78.9685 8.52083 79.2999 8.58333C79.6313 8.64583 79.942 8.72917 80.1905 8.875C80.4598 9.02083 80.6462 9.20833 80.7498 9.45833C80.8741 9.70833 80.8741 10 80.7912 10.375C80.6462 10.9167 80.3355 11.5625 79.8591 12.3125C79.3827 13.0625 78.927 13.6875 78.5128 14.2083C78.1607 13.8542 77.8085 13.5625 77.415 13.375C77.0214 13.1875 76.5243 13.0833 75.9444 13.0833C75.1366 13.0833 74.4116 13.3125 73.7488 13.7708C73.086 14.2292 72.6717 14.7917 72.506 15.4375L69.399 27.3958L64.1172 27.375L68.8812 9L69.3576 8.91667C69.5233 8.89583 69.7097 8.875 69.9169 8.85417C70.124 8.83333 70.3725 8.83333 70.6625 8.83333C71.491 8.83333 72.1746 9 72.6924 9.33333C73.2102 9.6875 73.4588 10.1875 73.4381 10.8542Z" fill="black"/>
<path d="M90.5472 2.85417C90.34 3.6875 89.8844 4.35417 89.1801 4.875C88.4966 5.39583 87.7509 5.64583 86.9845 5.64583C86.1767 5.64583 85.576 5.375 85.1618 4.85417C84.7475 4.33333 84.6439 3.66667 84.8718 2.83333C85.0789 2 85.5346 1.33333 86.2181 0.791667C86.9017 0.270833 87.6473 0 88.4344 0C89.2215 0 89.8015 0.270833 90.2365 0.791667C90.6715 1.33333 90.775 2.02083 90.5472 2.85417ZM84.0847 27.6667C83.9604 27.7083 83.7326 27.75 83.3597 27.7917C82.9869 27.8125 82.5934 27.8333 82.1791 27.8333C81.1641 27.8333 80.3978 27.625 79.8799 27.1875C79.3621 26.75 79.2585 25.8958 79.59 24.6042L83.629 9.04167C83.6911 9.02083 83.8983 8.97917 84.2711 8.9375C84.6439 8.89583 85.0375 8.875 85.4518 8.875C85.866 8.875 86.2596 8.91667 86.6738 9C87.0674 9.08333 87.3988 9.22917 87.6888 9.45833C87.958 9.6875 88.1652 10 88.2687 10.3958C88.3723 10.7917 88.3309 11.3333 88.1652 11.9792L84.0847 27.6667Z" fill="black"/>
<path d="M102.147 16.2917C102.478 15.0417 102.499 14.0417 102.209 13.2708C101.939 12.5 101.173 12.1042 99.9302 12.1042C98.8324 12.1042 97.9003 12.4583 97.0718 13.2083C96.264 13.9375 95.684 14.9792 95.3319 16.2917H102.147ZM98.356 24.1667C98.9981 24.1667 99.5988 24.1042 100.117 23.9583C100.655 23.8125 101.132 23.6458 101.567 23.4375C102.002 23.2292 102.395 23 102.747 22.75C103.099 22.5 103.41 22.2708 103.7 22.0625C103.907 22.4583 104.114 22.9583 104.28 23.5625C104.466 24.1667 104.508 24.6667 104.404 25.0625C104.259 25.625 103.804 26.1458 103.037 26.6042C102.395 27.0208 101.525 27.375 100.448 27.6667C99.371 27.9583 98.1696 28.1042 96.8232 28.1042C95.6012 28.1042 94.4412 27.9375 93.3434 27.625C92.2457 27.3125 91.3343 26.7708 90.6093 25.9792C89.8844 25.2083 89.408 24.1667 89.1801 22.8542C88.9523 21.5417 89.0973 19.8958 89.6151 17.8958C90.0293 16.2708 90.6507 14.8542 91.4586 13.6875C92.2664 12.5208 93.1985 11.5417 94.2341 10.75C95.2698 9.97917 96.3676 9.41667 97.5275 9.04167C98.6874 8.6875 99.8266 8.5 100.924 8.5C102.374 8.5 103.534 8.72917 104.446 9.1875C105.336 9.64583 105.999 10.25 106.434 11.0208C106.869 11.7917 107.097 12.6667 107.138 13.6458C107.159 14.625 107.035 15.6667 106.766 16.75C106.724 16.8958 106.683 17.0833 106.621 17.2917C106.558 17.5 106.496 17.7292 106.434 17.9583C106.351 18.1875 106.289 18.4167 106.227 18.6458C106.165 18.875 106.082 19.0417 106.041 19.1667L94.6277 19.1458C94.3584 20.5625 94.5034 21.75 95.0212 22.7083C95.5597 23.6875 96.6782 24.1667 98.356 24.1667Z" fill="black"/>
<path d="M112.897 27.4167L107.573 27.3958L112.317 9.125L112.793 9.04166C112.959 9.02083 113.145 9 113.352 8.97916C113.559 8.95833 113.808 8.95833 114.098 8.95833C114.926 8.95833 115.61 9.10416 116.148 9.41666C116.687 9.70833 116.936 10.25 116.894 11C117.495 10.3958 118.303 9.85416 119.338 9.35416C120.374 8.85416 121.679 8.60416 123.232 8.60416C125.076 8.60416 126.339 8.97916 127.023 9.70833C127.706 10.4375 128.038 11.3958 127.996 12.5833C127.976 13.1875 127.893 13.8333 127.748 14.5208C127.603 15.2292 127.437 15.9167 127.271 16.5833L124.434 27.3958H119.152L121.886 16.7917C122.031 16.2292 122.155 15.6875 122.238 15.2083C122.321 14.7083 122.342 14.2917 122.259 13.9375C122.176 13.5833 121.99 13.3125 121.658 13.125C121.327 12.9375 120.83 12.8333 120.167 12.8333C119.214 12.8333 118.344 13.0208 117.536 13.4375C116.749 13.8333 116.273 14.3333 116.128 14.9375L112.897 27.4167Z" fill="black"/>
<path d="M101.173 39.6458C101.173 40.4792 100.531 41.125 99.6818 41.125C98.8533 41.125 98.1904 40.4792 98.1904 39.6458C98.1904 38.8333 98.8533 38.1875 99.6818 38.1875C100.531 38.2083 101.173 38.8542 101.173 39.6458ZM98.5633 39.6458C98.5633 40.2917 99.0397 40.8125 99.7025 40.8125C100.345 40.8125 100.8 40.2917 100.8 39.6667C100.8 39.0208 100.324 38.5 99.6818 38.5C99.0397 38.5 98.5633 39.0208 98.5633 39.6458ZM99.4746 40.4167H99.1432V38.9583C99.2675 38.9375 99.4539 38.9167 99.7025 38.9167C99.9718 38.9167 100.096 38.9583 100.2 39.0208C100.282 39.0833 100.345 39.2083 100.345 39.3333C100.345 39.5 100.22 39.625 100.055 39.6667V39.6875C100.2 39.75 100.282 39.8542 100.324 40.0417C100.365 40.2708 100.386 40.3542 100.427 40.4167H100.055C100.013 40.3542 99.9925 40.2292 99.9303 40.0625C99.9096 39.8958 99.8061 39.8333 99.6403 39.8333H99.4746V40.4167ZM99.4746 39.5833H99.6403C99.8268 39.5833 99.9718 39.5208 99.9718 39.375C99.9718 39.25 99.8682 39.1458 99.6611 39.1458C99.5782 39.1458 99.5161 39.1458 99.4746 39.1667V39.5833Z" fill="black"/>
</svg>
